<svg width="57" height="56" viewBox="0 0 57 56" fill="none" xmlns="http://www.w3.org/2000/svg">
<rect x="0.5" width="56" height="56" rx="28" fill="#2868E4"/>
<mask id="mask0_456_1084" style="mask-type:alpha" maskUnits="userSpaceOnUse" x="16" y="16" width="25" height="24">
<rect x="16.5" y="16" width="24" height="24" fill="#D9D9D9"/>
</mask>
<g mask="url(#mask0_456_1084)">
<path d="M21.5 37C20.95 37 20.4792 36.8042 20.0875 36.4125C19.6958 36.0208 19.5 35.55 19.5 35V21C19.5 20.45 19.6958 19.9792 20.0875 19.5875C20.4792 19.1958 20.95 19 21.5 19H35.5C36.05 19 36.5208 19.1958 36.9125 19.5875C37.3042 19.9792 37.5 20.45 37.5 21V23.5H35.5V21H21.5V35H35.5V32.5H37.5V35C37.5 35.55 37.3042 36.0208 36.9125 36.4125C36.5208 36.8042 36.05 37 35.5 37H21.5ZM29.5 33C28.95 33 28.4792 32.8042 28.0875 32.4125C27.6958 32.0208 27.5 31.55 27.5 31V25C27.5 24.45 27.6958 23.9792 28.0875 23.5875C28.4792 23.1958 28.95 23 29.5 23H36.5C37.05 23 37.5208 23.1958 37.9125 23.5875C38.3042 23.9792 38.5 24.45 38.5 25V31C38.5 31.55 38.3042 32.0208 37.9125 32.4125C37.5208 32.8042 37.05 33 36.5 33H29.5ZM36.5 31V25H29.5V31H36.5ZM32.5 29.5C32.9167 29.5 33.2708 29.3542 33.5625 29.0625C33.8542 28.7708 34 28.4167 34 28C34 27.5833 33.8542 27.2292 33.5625 26.9375C33.2708 26.6458 32.9167 26.5 32.5 26.5C32.0833 26.5 31.7292 26.6458 31.4375 26.9375C31.1458 27.2292 31 27.5833 31 28C31 28.4167 31.1458 28.7708 31.4375 29.0625C31.7292 29.3542 32.0833 29.5 32.5 29.5Z" fill="white"/>
</g>
</svg>
