<svg width="57" height="56" viewBox="0 0 57 56" fill="none" xmlns="http://www.w3.org/2000/svg">
<rect x="0.5" width="56" height="56" rx="28" fill="#2868E4"/>
<mask id="mask0_456_1103" style="mask-type:alpha" maskUnits="userSpaceOnUse" x="16" y="16" width="25" height="24">
<rect x="16.5" y="16" width="24" height="24" fill="#D9D9D9"/>
</mask>
<g mask="url(#mask0_456_1103)">
<path d="M20.5 37C19.95 37 19.4792 36.8042 19.0875 36.4125C18.6958 36.0208 18.5 35.55 18.5 35V21C18.5 20.45 18.6958 19.9792 19.0875 19.5875C19.4792 19.1958 19.95 19 20.5 19H34.5C35.05 19 35.5208 19.1958 35.9125 19.5875C36.3042 19.9792 36.5 20.45 36.5 21V23H37.5C37.7833 23 38.0208 23.0958 38.2125 23.2875C38.4042 23.4792 38.5 23.7167 38.5 24C38.5 24.2833 38.4042 24.5208 38.2125 24.7125C38.0208 24.9042 37.7833 25 37.5 25H36.5V27H37.5C37.7833 27 38.0208 27.0958 38.2125 27.2875C38.4042 27.4792 38.5 27.7167 38.5 28C38.5 28.2833 38.4042 28.5208 38.2125 28.7125C38.0208 28.9042 37.7833 29 37.5 29H36.5V31H37.5C37.7833 31 38.0208 31.0958 38.2125 31.2875C38.4042 31.4792 38.5 31.7167 38.5 32C38.5 32.2833 38.4042 32.5208 38.2125 32.7125C38.0208 32.9042 37.7833 33 37.5 33H36.5V35C36.5 35.55 36.3042 36.0208 35.9125 36.4125C35.5208 36.8042 35.05 37 34.5 37H20.5ZM20.5 35H34.5V21H20.5V35ZM23.5 33H26.5C26.7833 33 27.0208 32.9042 27.2125 32.7125C27.4042 32.5208 27.5 32.2833 27.5 32V30C27.5 29.7167 27.4042 29.4792 27.2125 29.2875C27.0208 29.0958 26.7833 29 26.5 29H23.5C23.2167 29 22.9792 29.0958 22.7875 29.2875C22.5958 29.4792 22.5 29.7167 22.5 30V32C22.5 32.2833 22.5958 32.5208 22.7875 32.7125C22.9792 32.9042 23.2167 33 23.5 33ZM29.5 26H31.5C31.7833 26 32.0208 25.9042 32.2125 25.7125C32.4042 25.5208 32.5 25.2833 32.5 25V24C32.5 23.7167 32.4042 23.4792 32.2125 23.2875C32.0208 23.0958 31.7833 23 31.5 23H29.5C29.2167 23 28.9792 23.0958 28.7875 23.2875C28.5958 23.4792 28.5 23.7167 28.5 24V25C28.5 25.2833 28.5958 25.5208 28.7875 25.7125C28.9792 25.9042 29.2167 26 29.5 26ZM23.5 28H26.5C26.7833 28 27.0208 27.9042 27.2125 27.7125C27.4042 27.5208 27.5 27.2833 27.5 27V24C27.5 23.7167 27.4042 23.4792 27.2125 23.2875C27.0208 23.0958 26.7833 23 26.5 23H23.5C23.2167 23 22.9792 23.0958 22.7875 23.2875C22.5958 23.4792 22.5 23.7167 22.5 24V27C22.5 27.2833 22.5958 27.5208 22.7875 27.7125C22.9792 27.9042 23.2167 28 23.5 28ZM29.5 33H31.5C31.7833 33 32.0208 32.9042 32.2125 32.7125C32.4042 32.5208 32.5 32.2833 32.5 32V28C32.5 27.7167 32.4042 27.4792 32.2125 27.2875C32.0208 27.0958 31.7833 27 31.5 27H29.5C29.2167 27 28.9792 27.0958 28.7875 27.2875C28.5958 27.4792 28.5 27.7167 28.5 28V32C28.5 32.2833 28.5958 32.5208 28.7875 32.7125C28.9792 32.9042 29.2167 33 29.5 33Z" fill="white"/>
</g>
</svg>

