<svg width="21" height="20" viewBox="0 0 21 20" fill="none" xmlns="http://www.w3.org/2000/svg">
<mask id="mask0_400_3664" style="mask-type:alpha" maskUnits="userSpaceOnUse" x="0" y="0" width="21" height="20">
<rect x="0.517883" width="20" height="20" fill="#D9D9D9"/>
</mask>
<g mask="url(#mask0_400_3664)">
<path d="M8.43455 13.3333C6.92066 13.3333 5.63941 12.809 4.5908 11.7604C3.54219 10.7118 3.01788 9.43056 3.01788 7.91667C3.01788 6.40278 3.54219 5.12153 4.5908 4.07292C5.63941 3.02431 6.92066 2.5 8.43455 2.5C9.94844 2.5 11.2297 3.02431 12.2783 4.07292C13.3269 5.12153 13.8512 6.40278 13.8512 7.91667C13.8512 8.52778 13.754 9.10417 13.5596 9.64583C13.3651 10.1875 13.1012 10.6667 12.7679 11.0833L17.4346 15.75C17.5873 15.9028 17.6637 16.0972 17.6637 16.3333C17.6637 16.5694 17.5873 16.7639 17.4346 16.9167C17.2818 17.0694 17.0873 17.1458 16.8512 17.1458C16.6151 17.1458 16.4207 17.0694 16.2679 16.9167L11.6012 12.25C11.1846 12.5833 10.7054 12.8472 10.1637 13.0417C9.62205 13.2361 9.04566 13.3333 8.43455 13.3333ZM8.43455 11.6667C9.47622 11.6667 10.3616 11.3021 11.0908 10.5729C11.82 9.84375 12.1845 8.95833 12.1845 7.91667C12.1845 6.875 11.82 5.98958 11.0908 5.26042C10.3616 4.53125 9.47622 4.16667 8.43455 4.16667C7.39288 4.16667 6.50747 4.53125 5.7783 5.26042C5.04913 5.98958 4.68455 6.875 4.68455 7.91667C4.68455 8.95833 5.04913 9.84375 5.7783 10.5729C6.50747 11.3021 7.39288 11.6667 8.43455 11.6667Z" fill="white"/>
</g>
</svg>
